<?xml version="1.0" encoding="UTF-8" standalone="no"?>
<!-- Generator: Adobe Illustrator 19.0.0, SVG Export Plug-In . SVG Version: 6.00 Build 0)  -->

<svg
   version="1.1"
   id="Capa_1"
   x="0px"
   y="0px"
   viewBox="0 0 256 256"
   xml:space="preserve"
   sodipodi:docname="logo.svg"
   width="256"
   height="256"
   inkscape:version="1.2.2 (b0a8486541, 2022-12-01)"
   xmlns:inkscape="http://www.inkscape.org/namespaces/inkscape"
   xmlns:sodipodi="http://sodipodi.sourceforge.net/DTD/sodipodi-0.dtd"
   xmlns="http://www.w3.org/2000/svg"
   xmlns:svg="http://www.w3.org/2000/svg"><defs
   id="defs61" /><sodipodi:namedview
   id="namedview59"
   pagecolor="#ffffff"
   bordercolor="#000000"
   borderopacity="0.25"
   inkscape:showpageshadow="2"
   inkscape:pageopacity="0.0"
   inkscape:pagecheckerboard="0"
   inkscape:deskcolor="#d1d1d1"
   showgrid="false"
   inkscape:zoom="2.0058594"
   inkscape:cx="255.75073"
   inkscape:cy="256.49854"
   inkscape:window-width="3440"
   inkscape:window-height="1371"
   inkscape:window-x="0"
   inkscape:window-y="0"
   inkscape:window-maximized="1"
   inkscape:current-layer="Capa_1" />
<polygon
   style="fill:#ffffff"
   points="192.059,151.312 192.049,151.322 75.999,190.002 255.999,250.002 435.999,190.002 335.939,156.652 "
   id="polygon2"
   transform="matrix(0.49999971,0,0,0.49999971,-2.2777041e-4,0.001)" />
<path
   style="fill:#68d3ca;stroke-width:0.5"
   d="m 177.99917,50.001971 c 0,25.037985 -20.33099,44.999974 -44.99998,44.999974 -24.89848,0 -44.999969,-20.200489 -44.999969,-44.999974 0,-25.011486 20.304489,-44.9999739 44.999969,-44.9999739 24.95349,0 44.99998,20.2339879 44.99998,44.9999739 z"
   id="path4" />
<path
   style="fill:#ed589d;stroke-width:0.5"
   d="M 217.96415,138.38192 127.9992,125.00193 47.999244,140.49692 v 80.50495 l 79.999956,29.99998 89.99995,-29.99998 v -82.49995 z"
   id="path6" />
<g
   id="g16"
   transform="matrix(0.49999971,0,0,0.49999971,-2.2777041e-4,0.001)">
	<polygon
   style="fill:#ffee8d"
   points="501.999,124.002 353.319,78.112 335.939,156.652 435.999,190.002 "
   id="polygon8" />
	<path
   style="fill:#ffee8d"
   d="m 255.999,250.002 53.26,66.57 c 0.375,-0.118 192.394,-60.461 192.74,-60.57 l -66,-66 z"
   id="path10" />
	<path
   style="fill:#ffee8d"
   d="m 33.839,260.272 c 34.38,11.46 145.512,48.504 180,60 l 42.16,-70.27 -180,-60 z"
   id="path12" />
	<polygon
   style="fill:#ffee8d"
   points="75.999,190.002 192.049,151.322 192.059,151.312 180.869,70.722 9.999,124.002 "
   id="polygon14" />
</g>
<path
   d="m 77.999227,195.00189 c 2.759998,0 4.999997,-2.24 4.999997,-5 0,-2.76 -2.239999,-5 -4.999997,-5 -2.759999,0 -4.999997,2.24 -4.999997,5 0,2.76 2.239998,5 4.999997,5 z"
   id="path18"
   style="stroke-width:0.5" />
<path
   d="M 31.703254,95.776944 12.631265,127.56443 c -0.7805,1.30049 -0.928,2.88499 -0.402,4.30749 0.526,1.4225 1.669499,2.529 3.108498,3.0085 l 27.661484,9.22 v 76.90095 c 0,2.084 1.292999,3.9495 3.244498,4.6815 16.91349,6.34199 79.755955,29.91098 80.093455,30.03048 0.992,0.3495 2.1095,0.397 3.199,0.0445 0.0145,-0.005 0.0295,-0.008 0.044,-0.013 l 89.99994,-29.99998 c 2.0415,-0.6805 3.419,-2.5915 3.419,-4.7435 v -78.95995 l 29.49899,-9.27 c 1.66799,-0.524 2.94099,-1.881 3.35749,-3.579 0.416,-1.69799 -0.0845,-3.48999 -1.3205,-4.72649 L 225.07064,95.001445 254.53512,65.536962 c 1.2395,-1.239499 1.739,-3.037498 1.3175,-4.738497 -0.4215,-1.701499 -1.7035,-3.057499 -3.37849,-3.574498 L 180.72467,35.07898 C 174.25667,14.288492 155.03268,0.002 132.99919,0.002 112.51721,0.002 94.199217,12.484493 86.617722,31.314482 L 3.5107702,57.228467 c -1.670499,0.520999 -2.9474983,1.877999 -3.36599805,3.577498 -0.41849976,1.698999 0.0815,3.493998 1.31899925,4.731497 z m 8.519995,5.236496 80.281451,26.76049 -15.80949,26.35098 C 96.122716,151.26741 33.566253,130.41492 24.413258,127.36443 Z M 94.208217,81.537452 c 9.454993,11.623494 23.688483,18.464488 38.790973,18.464488 13.971,0 27.10149,-5.749495 36.54598,-15.879489 L 202.18715,95.001945 127.9992,119.73143 53.811241,95.002445 Z M 52.999241,147.43391 c 55.074969,18.26099 52.385469,17.70349 53.918969,17.70349 1.719,0 3.365,-0.8895 4.2885,-2.42799 L 122.9992,143.05392 V 243.78686 L 52.999241,217.53687 Z m 159.999909,69.96396 -79.99996,26.66649 V 139.25442 l 17.72549,22.15499 c 1.2895,1.61149 3.436,2.26449 5.4035,1.64649 l 56.87097,-17.87148 z m 28.63148,-91.69344 -85.23545,26.78598 -20.01199,-25.01298 80.26546,-26.75499 z M 216.64865,89.280948 175.88467,75.694456 c 4.616,-7.715496 7.1145,-16.61849 7.1145,-25.692485 0,-1.270499 -0.0535,-2.537999 -0.149,-3.801498 l 58.74696,18.13249 z M 132.99919,10.001994 c 18.40049,0 34.35948,12.445993 38.80898,30.265983 0.7905,3.166498 1.191,6.441496 1.191,9.733994 0,9.286994 -3.082,17.991489 -8.91399,25.175985 -7.6385,9.420995 -18.96899,14.823992 -31.08599,14.823992 -13.09799,0 -25.38348,-6.428997 -32.86648,-17.20199 -4.666493,-6.702997 -7.133492,-14.586992 -7.133492,-22.797987 0,-4.465498 0.7275,-8.843995 2.163499,-13.013993 C 100.71321,20.846988 115.9187,10.001994 132.99919,10.001994 Z M 83.531724,42.751475 c -0.347,2.388999 -0.5325,4.808997 -0.5325,7.249996 0,8.050495 1.906999,15.847991 5.541997,22.883487 L 39.349749,89.280948 14.381764,64.313463 Z"
   id="path20"
   style="stroke-width:0.5" />
<path
   d="m 95.123717,201.29338 11.119993,4.17 c 2.591,0.971 5.4695,-0.345 6.4375,-2.926 0.9695,-2.5855 -0.3405,-5.46799 -2.926,-6.43749 l -11.119995,-4.17 c -2.585499,-0.969 -5.467497,0.3405 -6.437497,2.926 -0.969499,2.58599 0.3405,5.46799 2.925999,6.43749 z"
   id="path22"
   style="stroke-width:0.5" />
<path
   d="M 109.75471,217.45987 79.754726,206.20988 c -2.585499,-0.9695 -5.467497,0.3405 -6.437497,2.926 -0.969999,2.5855 0.3405,5.46799 2.925999,6.43749 l 29.999982,11.25 c 0.5785,0.217 1.1715,0.32 1.755,0.32 2.0245,0 3.9295,-1.2385 4.6825,-3.246 0.97,-2.586 -0.34,-5.468 -2.926,-6.4375 z"
   id="path24"
   style="stroke-width:0.5" />
<path
   d="m 124.4637,68.53746 c 1.9525,1.952499 5.1185,1.952499 7.0715,0 l 29.99998,-29.999982 c 1.9525,-1.952499 1.9525,-5.118497 0,-7.071496 -1.9525,-1.952999 -5.1185,-1.952499 -7.0715,0 L 127.9992,57.930966 121.5347,51.46647 c -1.9525,-1.952499 -5.1185,-1.952499 -7.07149,0 -1.953,1.952499 -1.9525,5.118497 0,7.071496 z"
   id="path26"
   style="stroke-width:0.5" />
<g
   id="g28"
   transform="matrix(0.49999971,0,0,0.49999971,-2.2777041e-4,0.001)">
</g>
<g
   id="g30"
   transform="matrix(0.49999971,0,0,0.49999971,-2.2777041e-4,0.001)">
</g>
<g
   id="g32"
   transform="matrix(0.49999971,0,0,0.49999971,-2.2777041e-4,0.001)">
</g>
<g
   id="g34"
   transform="matrix(0.49999971,0,0,0.49999971,-2.2777041e-4,0.001)">
</g>
<g
   id="g36"
   transform="matrix(0.49999971,0,0,0.49999971,-2.2777041e-4,0.001)">
</g>
<g
   id="g38"
   transform="matrix(0.49999971,0,0,0.49999971,-2.2777041e-4,0.001)">
</g>
<g
   id="g40"
   transform="matrix(0.49999971,0,0,0.49999971,-2.2777041e-4,0.001)">
</g>
<g
   id="g42"
   transform="matrix(0.49999971,0,0,0.49999971,-2.2777041e-4,0.001)">
</g>
<g
   id="g44"
   transform="matrix(0.49999971,0,0,0.49999971,-2.2777041e-4,0.001)">
</g>
<g
   id="g46"
   transform="matrix(0.49999971,0,0,0.49999971,-2.2777041e-4,0.001)">
</g>
<g
   id="g48"
   transform="matrix(0.49999971,0,0,0.49999971,-2.2777041e-4,0.001)">
</g>
<g
   id="g50"
   transform="matrix(0.49999971,0,0,0.49999971,-2.2777041e-4,0.001)">
</g>
<g
   id="g52"
   transform="matrix(0.49999971,0,0,0.49999971,-2.2777041e-4,0.001)">
</g>
<g
   id="g54"
   transform="matrix(0.49999971,0,0,0.49999971,-2.2777041e-4,0.001)">
</g>
<g
   id="g56"
   transform="matrix(0.49999971,0,0,0.49999971,-2.2777041e-4,0.001)">
</g>
</svg>
